<?xml version="1.0" standalone="no"?>
<!DOCTYPE svg PUBLIC "-//W3C//DTD SVG 20010904//EN"
 "http://www.w3.org/TR/2001/REC-SVG-20010904/DTD/svg10.dtd">
<svg version="1.0" xmlns="http://www.w3.org/2000/svg"
 width="1200.000000pt" height="1200.000000pt" viewBox="0 0 1200.000000 1200.000000"
 preserveAspectRatio="xMidYMid meet">

<g transform="translate(0.000000,1200.000000) scale(0.100000,-0.100000)"
fill="#000000" stroke="none">
<path d="M1000 10500 l0 -500 -250 0 -250 0 0 -500 0 -500 -251 0 -251 0 6
-72 c5 -54 496 -7407 496 -7425 0 -2 1688 -3 3750 -3 l3750 0 0 -250 0 -250
2000 0 2000 0 0 1750 0 1750 -150 0 c-82 0 -150 1 -150 3 0 16 291 4370 295
4425 l7 72 -251 0 -251 0 0 500 0 500 -3500 0 -3500 0 -250 500 -250 500
-1500 0 -1500 0 0 -500z m2940 -500 l250 -500 3405 0 3405 0 0 -250 0 -250
-5000 0 -5000 0 0 250 0 250 250 0 250 0 0 500 0 500 1095 0 1095 0 250 -500z
m7435 -2855 c-49 -745 -92 -1355 -95 -1355 -3 0 -24 29 -47 63 -61 90 -158
200 -244 274 -466 406 -1123 487 -1670 207 -408 -209 -694 -586 -791 -1043
-17 -83 -21 -145 -25 -443 l-5 -348 -249 0 -249 0 0 -1250 0 -1250 -3515 0
c-1933 0 -3515 1 -3516 3 0 1 -98 1463 -217 3250 l-218 3247 5466 0 5465 0
-90 -1355z m-1137 -1174 c360 -89 638 -368 734 -736 19 -71 22 -116 25 -407
l5 -328 -1002 0 -1002 0 5 328 c3 291 6 336 25 407 96 368 380 652 734 735
121 28 131 29 268 25 81 -3 154 -11 208 -24z m1262 -3221 l0 -1250 -1500 0
-1500 0 0 1250 0 1250 1500 0 1500 0 0 -1250z"/>
<path d="M1500 6250 l0 -1250 3250 0 3250 0 0 1250 0 1250 -3250 0 -3250 0 0
-1250z m1417 736 c-97 -35 -157 -117 -165 -227 -2 -38 -6 -69 -7 -69 -2 0 -27
12 -56 28 -70 36 -172 38 -235 4 -180 -94 -178 -344 4 -448 17 -10 32 -21 32
-24 0 -4 -18 -16 -40 -29 -175 -98 -172 -350 5 -444 62 -33 164 -30 232 6 29
15 55 27 58 27 3 0 5 -22 5 -48 0 -109 68 -212 161 -245 41 -14 12 -15 -433
-16 l-478 -1 0 750 0 750 478 0 c411 -1 472 -3 439 -14z m1750 0 c-97 -35
-157 -117 -165 -227 -2 -38 -6 -69 -7 -69 -2 0 -27 12 -56 28 -69 35 -172 38
-234 5 -181 -96 -179 -345 3 -449 17 -10 32 -21 32 -24 0 -4 -18 -16 -40 -29
-175 -98 -172 -350 5 -444 61 -33 164 -30 232 6 29 15 54 27 56 27 3 0 7 -31
9 -69 8 -110 65 -189 164 -225 34 -13 -59 -15 -791 -15 -764 1 -826 2 -786 16
93 33 161 136 161 245 0 26 2 48 5 48 3 0 29 -12 58 -27 68 -36 171 -39 232
-6 109 58 160 183 123 304 -14 49 -67 112 -118 140 -22 13 -40 25 -40 29 0 3
15 14 33 24 145 83 183 266 79 386 -51 61 -103 84 -187 85 -58 0 -80 -5 -124
-27 -29 -16 -54 -28 -56 -28 -1 0 -5 31 -7 69 -8 110 -68 192 -165 227 -32 11
87 13 792 13 705 0 824 -2 792 -13z m1750 0 c-97 -35 -157 -117 -165 -227 -2
-38 -6 -69 -7 -69 -2 0 -27 12 -56 28 -70 36 -172 38 -235 4 -180 -94 -178
-344 4 -448 17 -10 32 -21 32 -24 0 -3 -15 -14 -32 -24 -121 -69 -170 -208
-117 -326 44 -97 117 -144 224 -144 57 0 80 5 122 27 29 15 54 27 56 27 3 0 7
-31 9 -69 8 -110 65 -189 164 -225 34 -13 -59 -15 -791 -15 -732 0 -825 2
-791 15 99 36 156 115 164 225 2 38 6 69 9 69 2 0 27 -12 56 -27 68 -36 171
-39 232 -6 109 58 160 183 123 304 -14 49 -67 112 -118 140 -22 13 -40 25 -40
29 0 3 15 14 33 24 145 83 183 266 79 386 -51 61 -103 84 -187 85 -58 0 -80
-5 -124 -27 -29 -16 -54 -28 -56 -28 -1 0 -5 31 -7 69 -8 110 -68 192 -165
227 -32 11 87 13 792 13 705 0 824 -2 792 -13z m1083 -736 l0 -750 -477 1
c-446 1 -475 2 -434 16 93 33 161 136 161 245 0 26 2 48 5 48 3 0 29 -12 58
-27 68 -36 171 -39 232 -6 109 58 160 183 123 304 -14 49 -67 112 -118 140
-22 13 -40 25 -40 29 0 3 15 14 33 24 120 69 169 208 116 326 -44 97 -116 144
-224 145 -57 0 -79 -5 -122 -27 -29 -16 -54 -28 -56 -28 -3 0 -7 31 -9 69 -8
110 -68 192 -165 227 -33 11 28 13 440 14 l477 0 0 -750z"/>
<path d="M9845 3733 c-584 -124 -794 -845 -369 -1266 62 -61 173 -136 236
-158 l36 -12 4 -187 3 -187 30 -49 c101 -163 329 -163 430 0 l30 49 3 187 4
187 36 12 c110 39 262 166 342 286 104 157 143 364 104 553 -83 408 -484 672
-889 585z m280 -517 c184 -108 157 -380 -44 -451 -214 -75 -411 164 -296 360
69 118 223 159 340 91z"/>
</g>
</svg>
