<?xml version="1.0" standalone="no"?>
<!DOCTYPE svg PUBLIC "-//W3C//DTD SVG 20010904//EN"
 "http://www.w3.org/TR/2001/REC-SVG-20010904/DTD/svg10.dtd">
<svg version="1.0" xmlns="http://www.w3.org/2000/svg"
 width="512.000000pt" height="512.000000pt" viewBox="0 0 512.000000 512.000000"
 preserveAspectRatio="xMidYMid meet">

<g transform="translate(0.000000,512.000000) scale(0.100000,-0.100000)"
fill="#000000" stroke="none">
<path d="M142 5004 c-29 -14 -65 -42 -82 -62 -65 -78 -60 107 -60 -2454 0
-2489 -2 -2374 45 -2392 9 -3 106 -6 216 -6 199 0 200 0 224 25 l25 24 0 746
c0 410 2 745 4 745 1 0 56 -25 120 -56 311 -147 643 -213 1021 -201 436 14
767 117 1131 353 163 106 300 173 454 222 252 81 550 115 810 93 336 -30 626
-122 868 -276 101 -63 138 -70 177 -30 l25 24 0 1385 c0 851 -4 1394 -10 1410
-28 76 -399 257 -667 326 -198 51 -488 75 -708 60 -419 -29 -707 -124 -1050
-345 -152 -98 -223 -136 -345 -185 -408 -165 -934 -185 -1370 -53 -118 36
-301 115 -385 167 l-70 43 -5 144 c-4 122 -8 150 -27 184 -65 122 -217 171
-341 109z m173 -169 l25 -24 0 -2276 0 -2275 -85 0 -85 0 0 2265 c0 1980 2
2270 15 2295 17 32 27 38 73 39 22 1 41 -7 57 -24z m3885 -80 c256 -39 493
-122 693 -242 l57 -34 0 -1264 0 -1264 -122 58 c-464 220 -1006 266 -1538 130
-218 -56 -392 -136 -635 -293 -324 -209 -662 -306 -1068 -306 -250 0 -442 29
-662 101 -121 40 -280 112 -367 169 l-48 30 0 1260 c0 693 2 1260 4 1260 2 0
50 -22 107 -49 321 -153 663 -221 1039 -208 431 16 770 121 1120 349 149 97
225 137 335 181 175 69 372 117 570 137 122 12 386 4 515 -15z"/>
</g>
</svg>
