<?xml version="1.0" standalone="no"?>
<!DOCTYPE svg PUBLIC "-//W3C//DTD SVG 20010904//EN"
 "http://www.w3.org/TR/2001/REC-SVG-20010904/DTD/svg10.dtd">
<svg version="1.0" xmlns="http://www.w3.org/2000/svg"
 width="1200.000000pt" height="1200.000000pt" viewBox="0 0 1200.000000 1200.000000"
 preserveAspectRatio="xMidYMid meet">

<g transform="translate(0.000000,1200.000000) scale(0.100000,-0.100000)"
fill="#000000" stroke="none">
<path d="M5965 11989 c-410 -28 -806 -96 -1299 -221 -2049 -517 -3361 -1412
-4032 -2748 -261 -519 -409 -1064 -481 -1770 -25 -248 -25 -1023 0 -1320 43
-498 111 -1007 222 -1655 144 -843 195 -1149 220 -1340 36 -266 45 -298 104
-356 85 -86 197 -99 303 -35 72 43 111 107 116 190 4 72 -52 471 -133 941
-229 1325 -280 1681 -332 2285 -25 292 -25 1014 0 1255 78 756 259 1335 585
1865 635 1034 1801 1762 3517 2195 431 109 724 164 1075 202 229 24 760 24
980 0 1212 -135 2250 -687 3102 -1650 735 -830 1269 -1941 1448 -3012 25 -149
38 -187 83 -233 53 -56 102 -76 182 -76 111 0 191 54 230 158 23 59 17 140
-25 365 -198 1056 -719 2147 -1430 2996 -222 265 -439 486 -715 727 -210 184
-566 434 -830 583 -622 353 -1281 563 -2010 640 -180 19 -695 27 -880 14z"/>
<path d="M6040 10953 c-454 -28 -1190 -171 -1755 -343 -1280 -388 -2171 -1032
-2673 -1930 -350 -626 -507 -1365 -489 -2290 13 -648 88 -1223 312 -2420 258
-1377 304 -1886 209 -2347 -27 -131 -26 -170 7 -234 92 -183 351 -183 441 1
28 57 58 187 80 350 8 60 13 201 12 380 -1 491 -42 789 -299 2165 -181 972
-250 1524 -262 2110 -9 429 18 764 88 1107 244 1201 1017 2018 2379 2516 505
185 1220 353 1778 419 208 24 664 24 857 -1 578 -74 1067 -259 1550 -587 1008
-685 1833 -1983 2320 -3649 274 -936 400 -1952 294 -2361 -30 -115 -15 -183
55 -257 52 -56 101 -76 181 -76 152 0 228 85 269 304 41 215 39 610 -4 990
-144 1259 -601 2628 -1233 3690 -459 772 -1019 1386 -1642 1799 -596 396
-1214 608 -1925 661 -125 9 -420 11 -550 3z"/>
<path d="M5850 9943 c-300 -21 -581 -79 -881 -182 -992 -339 -1733 -803 -2194
-1373 -245 -304 -444 -699 -540 -1073 -81 -315 -109 -555 -108 -940 0 -562 54
-937 298 -2080 68 -319 142 -677 165 -795 208 -1105 167 -1749 -148 -2314 -63
-114 -66 -122 -66 -185 1 -146 102 -246 249 -246 119 1 167 37 257 195 343
598 418 1332 243 2390 -47 283 -77 431 -211 1060 -228 1065 -286 1466 -287
1980 0 288 14 445 60 670 190 944 865 1620 2108 2113 346 137 572 206 807 246
897 154 1795 -184 2577 -970 1001 -1004 1707 -2628 1905 -4379 47 -412 68
-1021 48 -1388 -13 -234 -6 -271 67 -344 115 -114 299 -94 384 44 40 64 46
125 53 528 24 1322 -222 2602 -733 3805 -95 222 -309 650 -427 850 -437 741
-962 1337 -1541 1747 -445 315 -925 521 -1405 602 -224 38 -486 53 -680 39z"/>
<path d="M5815 8849 c-210 -21 -441 -77 -664 -161 -537 -201 -928 -433 -1245
-738 -591 -570 -804 -1330 -680 -2430 36 -325 83 -603 225 -1340 127 -661 184
-1025 226 -1440 22 -222 25 -820 5 -1010 -41 -384 -120 -712 -250 -1035 -65
-162 -72 -227 -34 -301 49 -95 121 -139 227 -139 129 1 186 50 259 223 245
582 352 1299 306 2065 -29 477 -88 887 -245 1712 -142 745 -180 969 -215 1260
-93 797 -12 1344 260 1760 101 153 275 340 430 462 346 270 932 534 1328 597
748 120 1440 -235 2053 -1054 317 -422 627 -1011 863 -1637 260 -690 462
-1491 580 -2293 70 -474 101 -822 117 -1310 8 -250 15 -346 26 -378 69 -196
347 -216 447 -32 38 70 41 115 27 470 -46 1175 -255 2331 -616 3400 -379 1121
-873 1984 -1477 2576 -433 425 -881 668 -1393 755 -139 23 -421 33 -560 18z"/>
<path d="M5845 7804 c-106 -16 -253 -51 -353 -84 -650 -211 -1040 -639 -1186
-1300 -53 -242 -61 -335 -61 -735 1 -475 21 -686 145 -1537 198 -1349 224
-1606 225 -2253 0 -361 -3 -470 -18 -605 -36 -329 -97 -620 -179 -862 -49
-145 -55 -217 -20 -284 49 -95 121 -139 227 -139 112 1 181 48 229 157 62 139
150 478 195 747 58 348 66 461 66 976 0 702 -20 897 -249 2470 -46 314 -84
619 -108 865 -8 81 -13 270 -13 475 0 372 8 456 65 681 118 467 421 761 924
894 281 74 532 55 776 -61 749 -356 1377 -1657 1685 -3494 135 -804 188 -1467
184 -2315 -2 -453 -1 -466 19 -506 47 -93 123 -139 227 -139 109 1 180 48 227
150 22 49 23 57 26 475 8 843 -50 1584 -188 2405 -239 1426 -660 2558 -1208
3245 -321 402 -682 649 -1092 747 -91 22 -133 25 -310 28 -113 2 -218 1 -235
-1z"/>
<path d="M5980 6736 c-181 -48 -314 -123 -434 -244 -162 -164 -254 -373 -308
-697 -9 -54 -13 -177 -13 -380 1 -391 17 -550 145 -1460 145 -1031 179 -1388
187 -1981 9 -659 -27 -1042 -148 -1548 -43 -180 -44 -216 -9 -287 45 -88 123
-134 225 -134 100 1 173 44 216 127 42 82 122 452 163 759 47 347 59 578 53
1064 -8 649 -36 951 -198 2109 -108 776 -139 1086 -139 1375 0 448 86 674 296
778 131 64 207 56 320 -35 201 -162 447 -623 635 -1192 241 -730 426 -1665
503 -2540 29 -331 38 -516 38 -825 0 -501 -26 -717 -126 -1055 -28 -91 -4
-180 65 -248 51 -50 95 -67 174 -67 176 1 245 104 320 480 128 636 73 1821
-136 2955 -220 1192 -551 2134 -923 2627 -78 104 -221 248 -297 301 -192 131
-405 173 -609 118z"/>
<path d="M6288 5235 c-58 -21 -102 -60 -133 -117 -38 -70 -39 -143 -2 -257
103 -318 230 -913 302 -1416 74 -520 99 -873 99 -1405 0 -631 -41 -1077 -150
-1618 -37 -182 -37 -215 -3 -283 22 -44 71 -93 118 -116 52 -26 163 -24 216 4
97 52 121 103 174 378 64 332 103 630 133 1030 16 209 15 970 0 1195 -52 734
-150 1370 -311 2015 -85 339 -127 467 -170 517 -66 77 -179 107 -273 73z"/>
</g>
</svg>
