<?xml version="1.0" standalone="no"?>
<!DOCTYPE svg PUBLIC "-//W3C//DTD SVG 20010904//EN"
 "http://www.w3.org/TR/2001/REC-SVG-20010904/DTD/svg10.dtd">
<svg version="1.0" xmlns="http://www.w3.org/2000/svg"
 width="1200.000000pt" height="1200.000000pt" viewBox="0 0 1200.000000 1200.000000"
 preserveAspectRatio="xMidYMid meet">

<g transform="translate(0.000000,1200.000000) scale(0.100000,-0.100000)"
fill="#000000" stroke="none">
<path d="M4540 11979 c-1182 -48 -2303 -541 -3145 -1384 -388 -387 -674 -788
-915 -1280 -835 -1706 -562 -3770 689 -5197 775 -885 1824 -1445 2981 -1592
430 -55 935 -46 1370 24 681 111 1327 370 1909 767 l124 85 1694 -1694 1693
-1693 530 530 530 530 -1696 1696 -1696 1696 66 95 c36 52 104 160 151 239
611 1024 814 2222 575 3397 -337 1653 -1562 3026 -3170 3551 -547 178 -1103
254 -1690 230z m400 -499 c667 -34 1270 -201 1835 -508 1509 -820 2380 -2472
2200 -4175 -133 -1263 -813 -2390 -1865 -3092 -574 -383 -1172 -603 -1880
-692 -171 -22 -747 -25 -915 -5 -197 23 -417 62 -585 103 -1291 318 -2365
1231 -2889 2456 -162 378 -264 768 -318 1213 -25 204 -24 704 1 915 101 857
421 1611 961 2262 252 304 560 580 900 808 413 276 827 463 1299 585 326 85
565 117 1031 138 17 1 118 -3 225 -8z m4853 -8908 l1497 -1497 -175 -175 -175
-175 -1497 1497 -1497 1497 169 174 c94 96 172 175 175 176 3 0 679 -673 1503
-1497z"/>
<path d="M3438 10476 c-147 -40 -229 -201 -169 -333 11 -22 122 -214 249 -425
126 -210 234 -393 241 -405 11 -21 8 -24 -47 -52 -152 -77 -345 -228 -458
-359 -185 -215 -319 -480 -403 -801 l-27 -103 -58 53 c-133 122 -239 308 -270
474 -38 204 -284 279 -429 130 -78 -80 -85 -185 -23 -370 118 -352 343 -627
651 -794 l60 -33 0 -233 0 -234 -405 -3 c-462 -3 -456 -2 -533 -88 -70 -78
-86 -174 -43 -265 25 -55 81 -110 132 -131 27 -11 121 -14 463 -14 l431 0 4
-22 c3 -13 12 -66 21 -118 25 -144 69 -323 116 -466 38 -119 40 -129 24 -139
-343 -202 -552 -454 -670 -808 -48 -144 -55 -225 -25 -295 24 -56 83 -116 136
-138 44 -18 142 -18 187 1 76 31 136 105 151 185 35 176 129 345 263 471 58
55 177 139 196 139 3 0 31 -36 62 -81 239 -340 579 -576 975 -673 296 -73 698
-75 993 -6 209 48 423 145 597 268 124 88 286 250 385 385 52 72 83 106 93
102 7 -3 47 -28 88 -56 169 -117 303 -315 350 -515 20 -87 44 -133 90 -174 50
-43 93 -60 155 -60 72 0 122 17 169 58 85 72 105 158 70 297 -90 359 -326 680
-632 860 l-84 49 37 110 c48 143 96 338 124 496 l21 125 440 5 c306 3 447 9
465 17 42 19 98 73 122 117 30 57 30 165 0 221 -27 52 -77 99 -128 122 -36 16
-80 18 -445 21 l-405 3 1 235 1 236 59 32 c298 159 528 439 645 786 67 196 60
288 -25 378 -105 112 -288 98 -378 -27 -16 -23 -38 -78 -53 -136 -47 -183
-159 -365 -284 -464 l-39 -31 -17 73 c-53 221 -168 491 -282 659 -148 219
-323 381 -556 512 -48 26 -85 51 -83 55 2 3 110 186 241 405 131 220 246 418
256 440 37 82 16 195 -48 261 -100 103 -267 104 -359 4 -17 -19 -156 -243
-309 -498 l-278 -463 -56 6 c-31 4 -94 12 -141 18 -130 16 -495 12 -630 -6
-63 -9 -123 -16 -132 -16 -12 0 -100 139 -294 463 -152 254 -290 477 -308 496
-58 62 -155 90 -238 67z m1465 -1496 c552 -38 909 -240 1118 -633 27 -51 49
-95 49 -99 0 -5 -594 -8 -1320 -8 -902 0 -1320 3 -1320 10 0 18 50 111 105
196 209 322 560 501 1048 534 164 11 159 11 320 0z m-403 -2609 c0 -1299 -1
-1369 -17 -1366 -171 35 -264 65 -383 126 -122 63 -208 128 -309 234 -307 325
-486 856 -532 1580 -16 254 -1 701 26 783 3 9 134 12 610 12 l605 0 0 -1369z
m1714 1352 c3 -10 10 -61 15 -113 45 -423 6 -995 -95 -1394 -176 -698 -544
-1106 -1083 -1204 l-51 -9 0 1368 0 1369 604 0 c567 0 605 -1 610 -17z"/>
</g>
</svg>
