<?xml version="1.0" standalone="no"?>
<!DOCTYPE svg PUBLIC "-//W3C//DTD SVG 20010904//EN"
 "http://www.w3.org/TR/2001/REC-SVG-20010904/DTD/svg10.dtd">
<svg version="1.0" xmlns="http://www.w3.org/2000/svg"
 width="64" height="64" viewBox="0 0 1200.000000 1200.000000"
 preserveAspectRatio="xMidYMid meet">

<g transform="translate(0.000000,1200.000000) scale(0.100000,-0.100000)"
fill="#000000" stroke="none">
<path d="M6300 11788 c-243 -35 -529 -204 -701 -413 l-60 -72 -167 -7 c-1231
-51 -2381 -508 -3322 -1318 -171 -148 -476 -456 -611 -618 -441 -529 -776
-1130 -984 -1765 -375 -1144 -334 -2376 116 -3510 77 -195 260 -564 366 -740
257 -424 510 -742 869 -1095 525 -514 1116 -900 1792 -1169 556 -221 1100
-340 1720 -373 l223 -12 61 -74 c151 -182 371 -324 613 -394 l80 -23 2320 -3
c2534 -3 2413 -6 2585 53 409 139 732 511 789 910 7 46 11 1675 10 4830 0
3978 -2 4773 -13 4837 -43 239 -160 453 -350 636 -154 149 -324 247 -526 303
l-85 24 -2330 1 c-1398 1 -2356 -2 -2395 -8z m4770 -511 c169 -57 290 -157
359 -298 78 -157 71 302 71 -4997 0 -5266 6 -4825 -66 -4972 -67 -136 -193
-237 -359 -287 -57 -17 -182 -18 -2375 -21 -2085 -2 -2323 -1 -2395 13 -180
36 -331 147 -405 299 -22 45 -47 108 -55 141 -13 52 -15 610 -15 4842 0 3396
3 4797 11 4835 6 29 30 94 54 144 55 113 145 204 257 258 145 69 -34 65 2538
63 2231 -2 2327 -3 2380 -20z m-5750 -1477 l0 -980 -924 0 c-509 0 -927 3
-929 8 -7 11 108 275 192 441 190 379 384 660 626 910 299 308 588 487 930
576 50 13 93 24 98 25 4 0 7 -441 7 -980z m-1426 643 c-341 -382 -640 -881
-869 -1453 -32 -80 -63 -151 -68 -157 -12 -16 -1337 -19 -1337 -4 0 12 80 117
183 241 477 573 1104 1036 1815 1339 92 40 347 136 370 140 1 1 -41 -47 -94
-106z m-1107 -2135 c-3 -13 -27 -111 -55 -219 -136 -530 -222 -1113 -248
-1686 l-7 -153 -883 0 -884 0 0 50 c0 28 7 117 15 198 60 573 206 1091 455
1609 43 90 88 176 100 193 l21 30 746 0 745 0 -5 -22z m2533 -1018 l0 -1040
-1170 0 -1170 0 0 55 c0 285 65 896 136 1285 49 265 154 699 177 728 7 9 223
12 1018 12 l1009 0 0 -1040z m-2836 -1692 c26 -574 112 -1157 248 -1687 28
-108 52 -206 55 -218 l5 -23 -745 0 -746 0 -21 30 c-12 17 -57 103 -100 193
-249 518 -395 1036 -455 1609 -8 81 -15 170 -15 198 l0 50 884 0 883 0 7 -152z
m2836 -888 l0 -1040 -1009 0 c-795 0 -1011 3 -1018 13 -23 28 -128 462 -177
727 -71 389 -136 1000 -136 1285 l0 55 1170 0 1170 0 0 -1040z m-2363 -1542
c5 -7 36 -78 68 -158 229 -572 528 -1071 869 -1452 l95 -107 -68 24 c-350 119
-782 332 -1091 538 -444 296 -860 685 -1158 1081 -29 38 -52 73 -52 77 0 5
299 9 664 9 519 0 666 -3 673 -12z m2363 -969 c0 -929 -1 -980 -17 -975 -10 3
-39 10 -64 15 -163 36 -403 142 -559 246 -324 217 -625 553 -874 973 -120 204
-353 693 -339 714 2 5 420 8 929 8 l924 0 0 -981z"/>
<path d="M6200 6525 l0 -4155 2448 2 2447 3 0 4150 0 4150 -2447 3 -2448 2 0
-4155z m4400 0 l0 -3645 -1950 0 -1950 0 0 3645 0 3645 1950 0 1950 0 0 -3645z"/>
<path d="M8030 1525 l0 -245 635 0 635 0 0 245 0 245 -635 0 -635 0 0 -245z"/>
</g>
</svg>
